<svg width="15" height="14" viewBox="0 0 15 14" fill="none" xmlns="http://www.w3.org/2000/svg">
<path d="M4.5 1.55518L5.01885 0.70031L4.5 0.385402L3.98115 0.70031L4.5 1.55518ZM7.5 3.37598L6.98115 4.23085L7.5 4.54576L8.01885 4.23085L7.5 3.37598ZM1.5 3.37598L0.981151 2.52112L0.5 2.81315V3.37598H1.5ZM1.5 7.27772H0.5V7.73924L0.851203 8.03868L1.5 7.27772ZM7.5 12.3933L6.8512 13.1543L7.5 13.7075L8.1488 13.1543L7.5 12.3933ZM13.5 7.27772L14.1488 8.03868L14.5 7.73924V7.27772H13.5ZM13.5 3.37598H14.5V2.81315L14.0188 2.52112L13.5 3.37598ZM10.5 1.55518L11.0189 0.70031L10.5 0.385402L9.98115 0.70031L10.5 1.55518ZM3.98115 2.41004L6.98115 4.23085L8.01885 2.52112L5.01885 0.70031L3.98115 2.41004ZM2.01885 4.23085L5.01885 2.41004L3.98115 0.70031L0.981151 2.52112L2.01885 4.23085ZM2.5 7.27772V3.37598H0.5V7.27772H2.5ZM8.1488 11.6324L2.1488 6.51676L0.851203 8.03868L6.8512 13.1543L8.1488 11.6324ZM8.1488 13.1543L14.1488 8.03868L12.8512 6.51676L6.8512 11.6324L8.1488 13.1543ZM14.5 7.27772V3.37598H12.5V7.27772H14.5ZM14.0188 2.52112L11.0189 0.70031L9.98115 2.41004L12.9812 4.23085L14.0188 2.52112ZM9.98115 0.70031L6.98115 2.52112L8.01885 4.23085L11.0189 2.41004L9.98115 0.70031Z" fill="white"/>
</svg>
