<svg width="123" height="44" viewBox="0 0 123 44" fill="none" xmlns="http://www.w3.org/2000/svg">
<path d="M122.222 36.0561V43.9621H107.58V-0.00292969H115.465V36.0561H122.222ZM59.658 21.5561C59.048 21.8501 58.41 21.9961 57.788 21.9981V7.85807H57.828C58.45 7.85307 63.092 8.04207 63.092 14.8511C63.092 18.4101 61.512 20.6551 59.658 21.5561ZM36.55 30.2371L38.733 11.4381L40.998 30.2371H36.55ZM106.205 8.02207V0.00407028H83.879L80.204 26.7831L76.574 0.00307035H68.522L69.423 7.15307C68.495 5.32107 65.199 0.00307035 57.943 0.00307035C57.896 0.00107035 49.883 0.00307035 49.883 0.00307035L49.852 39.0351L43.984 0.00407028L33.439 -0.000929832L27.367 40.4391L27.369 0.00407028H17.278L13.64 22.7211L10.096 0.00307035H0V43.9691H7.95V22.7771L11.568 43.9691H15.794L19.359 22.7771V43.9691H34.686L35.614 37.2071H41.784L42.711 43.9691L57.758 43.9771H57.768V43.9691H57.788V29.6991L59.633 29.4291L63.45 43.9791H71.234L71.232 43.9691H71.254L66.243 26.9211C68.781 25.0411 71.649 20.2771 70.886 15.7181V15.7161C70.894 15.7741 75.615 43.9971 75.615 43.9971L84.871 43.9701L91.198 4.12007V43.9701H106.205V36.0621H99.081V25.9821H106.205V17.9521H99.081V8.02107L106.205 8.02207Z" fill="#FEFEFE"/>
</svg>
